<?xml version="1.0" encoding="utf-8"?>
<!-- Generator: Adobe Illustrator 16.0.0, SVG Export Plug-In . SVG Version: 6.00 Build 0)  -->
<!DOCTYPE svg PUBLIC "-//W3C//DTD SVG 1.1//EN" "http://www.w3.org/Graphics/SVG/1.1/DTD/svg11.dtd">
<svg version="1.1" id="Layer_1" xmlns="http://www.w3.org/2000/svg" xmlns:xlink="http://www.w3.org/1999/xlink" x="0px" y="0px"
	 width="123.04px" height="70.002px" viewBox="0 0 123.04 70.002" enable-background="new 0 0 123.04 70.002" xml:space="preserve">
<path fill-rule="evenodd" clip-rule="evenodd" fill="#FFFFFF" d="M75.77,0c0.655,0.108,1.31,0.218,1.965,0.326
	c0.038,5.354,1.046,22.941-0.491,25.896c-0.546-0.054-1.092-0.108-1.638-0.162c-0.054-6.188-0.109-12.379-0.164-18.567
	C75.441,4.771,75.058,2.148,75.77,0z M66.926,1.629c0.709,0.163,1.419,0.326,2.129,0.488c0.055,0.109,0.109,0.218,0.164,0.326
	C69.109,3.148,69,3.854,68.891,4.561c-1.55,0.068-1.927-0.111-2.621-0.814C66.29,2.646,66.517,2.255,66.926,1.629z M84.778,1.629
	c1.124,0.014,1.649,0.241,2.293,0.651c0,0.055,0,0.108,0,0.163c-0.109,0.705-0.218,1.411-0.327,2.117
	c-1.599,0.166-3.007-0.228-2.457-1.629C84.45,2.498,84.614,2.063,84.778,1.629z M2.886,3.909c0,3.094,0,6.189,0,9.283
	c3.112,0.055,6.224,0.108,9.336,0.163c0,0.543,0,1.086,0,1.629c-3.112,0.054-6.224,0.108-9.336,0.163
	c0.036,3.726,0.385,7.631-0.328,10.912c-0.601,0.054-1.201,0.108-1.801,0.162C0.727,18.78-0.695,8.689,0.921,2.117
	C4.508,1.442,9.31,1.753,12.713,2.28c0,0.435,0,0.869,0,1.303c-0.055,0.109-0.109,0.218-0.164,0.326
	C9.329,3.909,6.107,3.909,2.886,3.909z M27.29,26.222c0-0.76,0-1.52,0-2.279c-3.254,2.302-10.143,4.188-11.301-1.466
	c-1.272-6.212,5.716-6.838,10.974-6.678c0.127-2.72-0.25-4.795-2.129-5.538c-2.794-0.786-5.438,1.005-7.861,1.466
	c-0.055-0.434-0.109-0.868-0.164-1.303c1.242-1.484,2.768-1.637,5.078-2.117c7.067-1.471,7.369,4.886,7.37,11.4
	c0,2.44,0.365,4.667-0.328,6.515C28.382,26.222,27.836,26.222,27.29,26.222z M37.772,8.47c0.054,0.868,0.109,1.737,0.164,2.605
	c0.164-0.163,0.328-0.325,0.491-0.488c2.965-1.434,8.367-5.084,9.991,0.977c1.494-1.166,2.811-3.109,4.914-3.583
	c6.963-1.565,7.493,8.344,6.551,14.333c-0.243,1.549,0.029,2.841-0.491,3.908c-0.491,0-0.983,0-1.474,0c0-0.108,0-0.217,0-0.325
	c-2.159-5.422,3.259-15.837-4.75-15.799c-1.72,0.82-3.022,2.135-4.095,3.584c0.048,3.921,0.635,9.443-0.491,12.54
	c-0.546,0-1.092,0-1.638,0c-0.404-3.79,0.662-8.583-0.164-12.378c-1.299-5.977-6.564-3.294-8.844-0.162
	c0.032,4.022,0.375,8.888-0.328,12.378c-0.601,0-1.201,0-1.802,0c-0.531-5.43-0.953-12.422,0.164-17.59
	C36.571,8.47,37.171,8.47,37.772,8.47z M94.605,17.59c-0.261,8.44,5.812,6.24,11.956,5.7c0.055,0.109,0.109,0.218,0.164,0.326
	c-0.055,0.435-0.109,0.869-0.164,1.303c-7.403,3.771-12.838,0.963-14.249-6.515c-0.458-2.43,0.122-5.438,1.146-7.003
	c3.943-6.024,17.142-2.492,13.43,6.025C102.795,17.481,98.699,17.536,94.605,17.59z M116.061,8.144
	c2.833-0.099,4.301,0.289,5.732,1.466c-0.055,0.543-0.109,1.086-0.164,1.629c-0.055,0-0.109,0-0.164,0
	c-1.825-0.522-3.464-1.435-5.896-0.978c-0.917,0.84-1.529,1.401-1.638,3.095c2.059,2.639,11.545,4.71,8.517,9.935
	c-1.615,2.786-12.545,5.384-10.974-0.325c0.055,0,0.109,0,0.164,0c1.453,0.402,11.51,3.479,8.844-2.443
	c-1.35-2.997-8.792-2.564-9.008-8.632C112.608,9.559,113.863,9.407,116.061,8.144z M66.926,8.307
	c0.655,0.163,1.31,0.325,1.965,0.488c0.044,4.177,0.989,14.563-0.491,17.427c-0.546,0-1.092,0-1.638,0
	C66.046,21.296,65.463,12.939,66.926,8.307z M84.778,8.307c0.655,0.108,1.311,0.217,1.966,0.325c0.043,4.207,1,14.705-0.492,17.59
	c-0.959,0.044-1.265,0.066-1.638-0.488C83.198,22.366,84.023,11.698,84.778,8.307z M94.605,15.799
	c3.439-0.055,6.879-0.109,10.318-0.163C105.01,7.967,94.458,8.619,94.605,15.799z M26.962,17.59
	c-3.128-0.122-6.932-0.137-8.025,1.792c-2.073,2.02,0.293,5.807,3.604,5.049c1.802-0.413,3.179-1.605,4.422-2.606
	C26.962,20.413,26.962,19.001,26.962,17.59z M21.066,33.063c6.076-0.125,9.415,4.444,7.698,10.424c-0.055,0-0.109,0-0.164,0
	c0.183-4.109-3.401-8.964-8.189-7.004c-3.477,1.424-1.435,5.976,0,7.818c-0.164-0.108-0.328-0.218-0.491-0.326
	c-2.074-0.956-4.313-6.315-2.293-9.12C18.438,33.728,19.654,33.642,21.066,33.063z M7.964,40.229
	c7.897-0.06,9.26,5.039,14.904,6.678c5.925,1.721,11.499-6.302,17.525-1.954c2.968,2.141,4.476,8.56,1.965,12.378
	c-2.345,3.567-9.027,4.316-12.775,6.515c-1.638,1.248-3.276,2.497-4.914,3.746c-0.055,0-0.109,0-0.164,0c0-0.326,0-0.651,0-0.978
	c2.544-6.591,15.881-7.06,14.249-15.635c-2.011-10.568-9.655-1.708-15.396-2.77c-5.606-1.036-10.693-8.557-17.361-3.583
	c-8.728,6.51,2.925,17.05,8.189,19.707c2.93,1.479,7.058,1.098,7.37,5.212c-7.187-4.917-28.944-11.076-18.999-25.57
	C3.943,41.956,5.661,41.401,7.964,40.229z M72.003,42.184c1.06,0.033,1.668,0.258,2.293,0.651c0.055,0.108,0.109,0.217,0.164,0.325
	c-0.109,0.706-0.219,1.412-0.328,2.117c-1.042,0.329-2.11,0.105-2.785-0.325c-0.054-0.108-0.109-0.218-0.164-0.326
	c0.055-0.488,0.109-0.978,0.164-1.466C71.566,42.835,71.785,42.509,72.003,42.184z M65.288,44.626
	c-3.603,0.055-7.207,0.108-10.81,0.163c0,3.42,0,6.841,0,10.261c3.439,0.055,6.879,0.108,10.318,0.163c0,0.597,0,1.194,0,1.791
	c-3.439,0.055-6.879,0.109-10.318,0.163c0.034,4.183,0.42,8.343-0.328,12.053c-0.709,0.054-1.419,0.108-2.129,0.162
	C52,60.678,50.96,50.585,52.185,42.835c3.123-1.053,10.175-0.915,13.103,0.162C65.288,43.54,65.288,44.083,65.288,44.626z
	 M20.411,44.301c0.164,0.108,0.328,0.217,0.491,0.325C20.739,44.518,20.575,44.409,20.411,44.301z M115.406,49.675
	c1.767-0.081,4.155-0.495,5.405,0.326c0.109,0,0.218,0,0.328,0c0,0.543,0,1.086,0,1.629c-1.911,0.054-3.822,0.108-5.732,0.162
	c-0.071,5.033-0.897,11.647,0.982,15.311c1.689,0.313,3.072,0.119,4.75-0.163c0,0.543,0,1.086,0,1.629
	c-0.055,0.162-0.109,0.325-0.164,0.488c-0.164,0.054-0.328,0.108-0.491,0.163c-9.24,4.458-7.681-11.317-7.534-17.428
	c-1.075,0.051-2.339,0.074-2.948-0.325c-0.109,0-0.218,0-0.327,0c0-0.543,0-1.086,0-1.629c1.092-0.055,2.184-0.108,3.275-0.163
	c-0.04-1.771-0.115-3.92,0.328-5.211c0.709,0.108,1.419,0.217,2.129,0.325C115.406,46.418,115.406,48.047,115.406,49.675z
	 M83.632,49.838c0,1.086,0,2.172,0,3.258c2.417-2.249,3.568-4.509,8.025-3.095c0.055,0.108,0.109,0.217,0.164,0.326
	c-0.055,0.542-0.109,1.085-0.164,1.628c-0.109,0.108-0.218,0.218-0.327,0.326c-6.988-2.657-7.633,5.426-7.534,11.563
	c0.028,1.741,0.454,3.922-0.328,5.212c0,0.108,0,0.217,0,0.325c-0.838,0.049-1.574,0.063-1.965-0.325
	c-1.348-3.147-0.826-16.281,0.164-19.382C82.321,49.729,82.977,49.783,83.632,49.838z M99.519,49.35
	c2.686-0.085,4.357,0.347,5.896,1.303c0.226,0.779,0.288,1.198,0.164,2.117c-0.109,0.055-0.218,0.108-0.328,0.163
	c-2.959-1.469-8.293-2.797-8.189,2.443c2.102,3.687,8.902,3.033,9.827,7.817c1.275,6.597-9.567,8.043-12.775,4.397
	c-0.033-0.83-0.003-1.379,0.328-1.792c2.253,0.955,7.865,3.119,9.335,0c0.511-0.8,0.606-2.058,0.164-2.932
	c-3.431-1.414-14.02-7.514-7.862-12.052C97.226,50.327,98.372,49.838,99.519,49.35z M17.627,49.675
	c3.553-0.123,5.154,2.147,4.586,5.538c-0.055,0-0.109,0-0.164,0c-0.205-2.289-2.113-4.965-4.75-3.583
	c-1.708,0.813-0.65,2.916,0,4.071c-0.218-0.108-0.437-0.217-0.655-0.325c-0.692-1.484-1.356-2.521-0.819-4.561
	C16.426,50.436,17.026,50.055,17.627,49.675z M71.839,49.675c0.709,0.108,1.419,0.218,2.129,0.326
	c0.04,3.93,0.98,16.964-0.328,19.056c0,0.108,0,0.217,0,0.325c-0.838,0.049-1.574,0.063-1.965-0.325
	C70.328,65.909,70.85,52.775,71.839,49.675z M10.912,52.118c3.926,0.673,4.464,4.845,8.189,5.7c4.132,0.949,5.681-2.646,9.664-1.954
	c0,0.054,0,0.108,0,0.163c-3.876,0.064-5.025,2.833-8.517,3.257c-4.104,0.499-5.976-4.795-8.353-6.352
	c-0.601-0.217-1.201-0.435-1.802-0.651C10.366,52.227,10.639,52.173,10.912,52.118z"/>
</svg>
